<?xml version="1.0" encoding="utf-8"?>
<!-- Generator: Adobe Illustrator 17.0.0, SVG Export Plug-In . SVG Version: 6.00 Build 0)  -->
<!DOCTYPE svg PUBLIC "-//W3C//DTD SVG 1.1//EN" "http://www.w3.org/Graphics/SVG/1.1/DTD/svg11.dtd">
<svg version="1.1" id="Layer_1" xmlns="http://www.w3.org/2000/svg" xmlns:xlink="http://www.w3.org/1999/xlink" x="0px" y="0px"
	 width="299.67px" height="253.561px" viewBox="0 0 299.67 253.561" enable-background="new 0 0 299.67 253.561"
	 xml:space="preserve">
<g>
	<path fill="none" stroke="#E84546" stroke-width="5" stroke-miterlimit="10" d="M293.297,201.661c0,4.418-3.582,8-8,8H14.972
		c-4.418,0-8-3.582-8-8V12.533c0-4.418,3.582-8,8-8h270.325c4.418,0,8,3.582,8,8V201.661z"/>
	<path fill="none" stroke="#E84546" stroke-width="5" stroke-miterlimit="10" d="M279.622,182.584c0,3.996-3.24,7.236-7.236,7.236
		H27.883c-3.996,0-7.236-3.24-7.236-7.236V25.566c0-3.996,3.24-7.236,7.236-7.236h244.503c3.996,0,7.236,3.24,7.236,7.236V182.584z"
		/>
</g>
<polygon fill="none" stroke="#E84546" stroke-width="5" stroke-miterlimit="10" points="171.929,234.618 128.34,234.618 
	130.817,209.37 169.453,209.37 "/>
<path fill="none" stroke="#E84546" stroke-width="5" stroke-miterlimit="10" d="M193.297,243.811c0,3.004-3.04,5.44-6.79,5.44
	h-72.745c-3.75,0-6.79-2.436-6.79-5.44v-3.65c0-3.004,3.04-5.44,6.79-5.44h72.745c3.75,0,6.79,2.436,6.79,5.44V243.811z"/>
<rect x="34.436" y="36.721" fill="none" stroke="#E84546" stroke-width="3" stroke-miterlimit="10" width="86.325" height="133.333"/>
<rect x="131.803" y="103.633" fill="none" stroke="#E84546" stroke-width="3" stroke-miterlimit="10" width="84.658" height="66.333"/>
<rect x="131.436" y="36.387" fill="none" stroke="#E84546" stroke-width="3" stroke-miterlimit="10" width="133.991" height="59"/>
<rect x="225.436" y="103.721" fill="none" stroke="#E84546" stroke-width="3" stroke-miterlimit="10" width="39.991" height="66.333"/>
<rect x="231.197" y="111.17" fill="none" stroke="#E84546" stroke-miterlimit="10" width="28.47" height="51.435"/>
<rect x="41.932" y="48.157" fill="none" stroke="#E84546" stroke-miterlimit="10" width="71.333" height="33.333"/>
<line fill="none" stroke="#E84546" stroke-miterlimit="10" x1="52.667" y1="57.49" x2="102.667" y2="71.49"/>
<line fill="none" stroke="#E84546" stroke-miterlimit="10" x1="102.667" y1="57.49" x2="52.667" y2="71.49"/>
<rect x="72.333" y="112.823" fill="none" stroke="#E84546" stroke-miterlimit="10" width="40.667" height="48.667"/>
<line fill="none" stroke="#E84546" stroke-miterlimit="10" x1="43.667" y1="89.49" x2="58.333" y2="89.49"/>
<line fill="none" stroke="#E84546" stroke-miterlimit="10" x1="43.667" y1="116.823" x2="58.333" y2="116.823"/>
<line fill="none" stroke="#E84546" stroke-miterlimit="10" x1="43.667" y1="123.157" x2="51" y2="123.157"/>
<line fill="none" stroke="#E84546" stroke-miterlimit="10" x1="53" y1="123.157" x2="66" y2="123.157"/>
<line fill="none" stroke="#E84546" stroke-miterlimit="10" x1="43.667" y1="129.823" x2="63" y2="129.823"/>
<line fill="none" stroke="#E84546" stroke-miterlimit="10" x1="43.667" y1="136.823" x2="67" y2="136.823"/>
<line fill="none" stroke="#E84546" stroke-miterlimit="10" x1="62.667" y1="89.49" x2="111.667" y2="89.49"/>
<line fill="none" stroke="#E84546" stroke-miterlimit="10" x1="43.667" y1="96.823" x2="66" y2="96.823"/>
<line fill="none" stroke="#E84546" stroke-miterlimit="10" x1="69.333" y1="96.823" x2="106" y2="96.823"/>
<line fill="none" stroke="#E84546" stroke-miterlimit="10" x1="43.667" y1="103.157" x2="81.333" y2="103.157"/>
<line fill="none" stroke="#E84546" stroke-miterlimit="10" x1="84.333" y1="103.157" x2="100" y2="103.157"/>
<circle fill="none" stroke="#E84546" stroke-miterlimit="10" cx="150.966" cy="119.355" r="4.333"/>
<line fill="none" stroke="#E84546" stroke-miterlimit="10" x1="159.632" y1="119.355" x2="186.299" y2="119.355"/>
<line fill="none" stroke="#E84546" stroke-miterlimit="10" x1="191.632" y1="119.355" x2="199.299" y2="119.355"/>
<circle fill="none" stroke="#E84546" stroke-miterlimit="10" cx="150.966" cy="130.911" r="4.333"/>
<circle fill="none" stroke="#E84546" stroke-miterlimit="10" cx="150.966" cy="130.911" r="2.667"/>
<line fill="none" stroke="#E84546" stroke-miterlimit="10" x1="159.632" y1="130.911" x2="175.299" y2="130.911"/>
<line fill="none" stroke="#E84546" stroke-miterlimit="10" x1="180.632" y1="130.911" x2="201.632" y2="130.911"/>
<circle fill="none" stroke="#E84546" stroke-miterlimit="10" cx="150.966" cy="142.911" r="4.333"/>
<line fill="none" stroke="#E84546" stroke-miterlimit="10" x1="159.632" y1="142.911" x2="167.632" y2="142.911"/>
<line fill="none" stroke="#E84546" stroke-miterlimit="10" x1="171.632" y1="142.911" x2="199.299" y2="142.911"/>
<circle fill="none" stroke="#E84546" stroke-miterlimit="10" cx="150.966" cy="154.244" r="4.333"/>
<line fill="none" stroke="#E84546" stroke-miterlimit="10" x1="159.632" y1="154.244" x2="186.299" y2="154.244"/>
<line fill="none" stroke="#E84546" stroke-miterlimit="10" x1="139.667" y1="46.823" x2="209" y2="46.823"/>
<line fill="none" stroke="#E84546" stroke-miterlimit="10" x1="139.667" y1="59.823" x2="237.667" y2="59.823"/>
<line fill="none" stroke="#E84546" stroke-miterlimit="10" x1="139.667" y1="65.49" x2="166.333" y2="65.49"/>
<line fill="none" stroke="#E84546" stroke-miterlimit="10" x1="170.667" y1="65.49" x2="224" y2="65.49"/>
<line fill="none" stroke="#E84546" stroke-miterlimit="10" x1="139.667" y1="53.157" x2="191" y2="53.157"/>
<line fill="none" stroke="#E84546" stroke-miterlimit="10" x1="195.333" y1="53.157" x2="230" y2="53.157"/>
<line fill="none" stroke="#E84546" stroke-miterlimit="10" x1="233.667" y1="53.157" x2="257" y2="53.157"/>
<line fill="none" stroke="#E84546" stroke-miterlimit="10" x1="212.333" y1="46.823" x2="244.333" y2="46.823"/>
</svg>
