<?xml version="1.0" encoding="utf-8"?>
<!-- Generator: Adobe Illustrator 17.0.0, SVG Export Plug-In . SVG Version: 6.00 Build 0)  -->
<!DOCTYPE svg PUBLIC "-//W3C//DTD SVG 1.1//EN" "http://www.w3.org/Graphics/SVG/1.1/DTD/svg11.dtd">
<svg version="1.1" id="Layer_1" xmlns="http://www.w3.org/2000/svg" xmlns:xlink="http://www.w3.org/1999/xlink" x="0px" y="0px"
	 width="200px" height="100px" viewBox="0 0 200 100" enable-background="new 0 0 200 100" xml:space="preserve">
<path fill="#E6E6E6" d="M57.811,28.225c-1.27-3.154-3.012-5.979-5.224-8.474c-2.214-2.493-4.861-4.706-7.944-6.246
	C41.559,11.964,38.168,11,34.469,11H10.406C5.485,11,1,15.299,1,20.22v60.395c0,4.921,4.079,8.911,9,8.911c4.921,0,9-3.989,9-8.911
	V64h16.013c3.7,0,7.073-0.571,10.12-2.039c3.047-1.467,5.64-3.367,7.781-5.862c2.139-2.493,3.809-5.278,5.006-8.434
	c1.197-3.154,1.795-6.435,1.795-9.885C59.715,34.552,59.079,31.381,57.811,28.225z M39.366,45.541
	C37.842,47.376,36.028,48,33.925,48H19V27h14.272c1.015,0,2.03,0.32,3.047,0.723c1.015,0.404,1.921,1.104,2.721,1.985
	c0.797,0.881,1.432,2.01,1.904,3.331c0.471,1.321,0.707,2.768,0.707,4.601C41.651,41.161,40.889,43.708,39.366,45.541z"/>
<path fill="#E6E6E6" d="M33.158,27.075l2.443-15.926C35.198,11.128,34.881,11,34.469,11H10.406C5.485,11,1,15.299,1,20.22v60.395
	c0,4.921,4.079,8.911,9,8.911c4.921,0,9-3.989,9-8.911V64h8.555l2.541-16H19V27h14"/>
<linearGradient id="SVGID_1_" gradientUnits="userSpaceOnUse" x1="19.2819" y1="55.2945" x2="29.0182" y2="56.4858">
	<stop  offset="0" style="stop-color:#E6E6E6;stop-opacity:0"/>
	<stop  offset="0.3804" style="stop-color:#E4E4E4;stop-opacity:0.1902"/>
	<stop  offset="0.5175" style="stop-color:#DDDDDD;stop-opacity:0.2587"/>
	<stop  offset="0.6152" style="stop-color:#D1D1D1;stop-opacity:0.3076"/>
	<stop  offset="0.6943" style="stop-color:#C1C1C1;stop-opacity:0.3471"/>
	<stop  offset="0.7619" style="stop-color:#ABABAB;stop-opacity:0.381"/>
	<stop  offset="0.8219" style="stop-color:#8F8F8F;stop-opacity:0.4109"/>
	<stop  offset="0.8762" style="stop-color:#6F6F6F;stop-opacity:0.4381"/>
	<stop  offset="0.926" style="stop-color:#494949;stop-opacity:0.463"/>
	<stop  offset="0.9703" style="stop-color:#202020;stop-opacity:0.4852"/>
	<stop  offset="1" style="stop-color:#000000;stop-opacity:0.5"/>
</linearGradient>
<polygon fill="url(#SVGID_1_)" points="20,48 20,64 27.555,64 30.096,48 "/>
<linearGradient id="SVGID_2_" gradientUnits="userSpaceOnUse" x1="24.2889" y1="18.3172" x2="34.5694" y2="19.5752">
	<stop  offset="0" style="stop-color:#E6E6E6;stop-opacity:0"/>
	<stop  offset="0.3804" style="stop-color:#E4E4E4;stop-opacity:0.1902"/>
	<stop  offset="0.5175" style="stop-color:#DDDDDD;stop-opacity:0.2587"/>
	<stop  offset="0.6152" style="stop-color:#D1D1D1;stop-opacity:0.3076"/>
	<stop  offset="0.6943" style="stop-color:#C1C1C1;stop-opacity:0.3471"/>
	<stop  offset="0.7619" style="stop-color:#ABABAB;stop-opacity:0.381"/>
	<stop  offset="0.8219" style="stop-color:#8F8F8F;stop-opacity:0.4109"/>
	<stop  offset="0.8762" style="stop-color:#6F6F6F;stop-opacity:0.4381"/>
	<stop  offset="0.926" style="stop-color:#494949;stop-opacity:0.463"/>
	<stop  offset="0.9703" style="stop-color:#202020;stop-opacity:0.4852"/>
	<stop  offset="1" style="stop-color:#000000;stop-opacity:0.5"/>
</linearGradient>
<path fill="url(#SVGID_2_)" d="M35.647,11.111C35.242,11.091,34.881,11,34.469,11H25v16h8.178h0.069L35.647,11.111z"/>
</svg>
