<?xml version="1.0" encoding="utf-8"?>
<!-- Generator: Adobe Illustrator 17.0.0, SVG Export Plug-In . SVG Version: 6.00 Build 0)  -->
<!DOCTYPE svg PUBLIC "-//W3C//DTD SVG 1.1//EN" "http://www.w3.org/Graphics/SVG/1.1/DTD/svg11.dtd">
<svg version="1.1" id="Layer_1" xmlns="http://www.w3.org/2000/svg" xmlns:xlink="http://www.w3.org/1999/xlink" x="0px" y="0px"
	 width="200px" height="100px" viewBox="0 0 200 100" enable-background="new 0 0 200 100" xml:space="preserve">
<path fill="#FCAD56" stroke="#FCAD56" stroke-width="2" stroke-miterlimit="10" d="M80.338,28.036v6.589h6.802
	c0.358,0,0.661,0.125,0.91,0.373c0.248,0.249,0.373,0.552,0.373,0.91s-0.125,0.656-0.373,0.894c-0.249,0.238-0.552,0.358-0.91,0.358
	h-6.802v7.962c0,0.378-0.134,0.696-0.402,0.954s-0.591,0.388-0.969,0.388c-0.379,0-0.696-0.129-0.955-0.388
	c-0.258-0.258-0.388-0.576-0.388-0.954V26.873c0-0.377,0.129-0.7,0.388-0.969c0.258-0.268,0.576-0.403,0.955-0.403h11.599
	c0.358,0,0.661,0.125,0.909,0.373c0.248,0.248,0.372,0.552,0.372,0.91s-0.124,0.656-0.372,0.894
	c-0.249,0.238-0.552,0.358-0.909,0.358C90.566,28.036,80.338,28.036,80.338,28.036z"/>
<path fill="#FCAD56" stroke="#FCAD56" stroke-width="2" stroke-miterlimit="10" d="M105.028,25.203c3.141,0,5.666,1.005,7.574,3.012
	c1.848,1.969,2.812,4.532,2.892,7.694c-0.08,3.16-1.044,5.725-2.892,7.693c-1.908,2.008-4.433,3.011-7.574,3.011
	c-3.16,0-5.685-1.004-7.573-3.011c-1.889-1.988-2.853-4.552-2.893-7.693c0.04-3.141,1.004-5.705,2.893-7.694
	C99.342,26.207,101.867,25.203,105.028,25.203z M105.028,44.078c2.425,0,4.333-0.785,5.725-2.356
	c1.352-1.511,2.028-3.449,2.028-5.815s-0.676-4.304-2.028-5.815c-1.392-1.57-3.3-2.356-5.725-2.356
	c-2.425,0-4.333,0.785-5.725,2.356c-1.352,1.511-2.027,3.449-2.027,5.815s0.676,4.304,2.027,5.815
	C100.694,43.293,102.602,44.078,105.028,44.078z"/>
<path fill="#FCAD56" stroke="#FCAD56" stroke-width="2" stroke-miterlimit="10" d="M133.429,44.003
	c0.269,0.269,0.403,0.592,0.403,0.969s-0.134,0.696-0.403,0.954c-0.268,0.259-0.592,0.388-0.969,0.388h-10.586
	c-0.517,0-0.96-0.184-1.327-0.552c-0.368-0.368-0.552-0.81-0.552-1.326V26.724c0-0.378,0.129-0.701,0.388-0.969
	c0.258-0.268,0.576-0.402,0.955-0.402c0.377,0,0.7,0.134,0.969,0.402c0.268,0.268,0.402,0.591,0.402,0.969v16.877h9.751
	C132.837,43.601,133.161,43.735,133.429,44.003z"/>
<path fill="#FCAD56" stroke="#FCAD56" stroke-width="2" stroke-miterlimit="10" d="M144.506,25.501c3.32,0,5.963,1.114,7.931,3.34
	c0.875,0.974,1.526,2.082,1.953,3.324c0.428,1.243,0.641,2.49,0.641,3.743c0,1.252-0.214,2.5-0.641,3.742
	c-0.428,1.243-1.078,2.351-1.953,3.325c-1.968,2.226-4.612,3.34-7.931,3.34h-5.993c-0.379,0-0.696-0.129-0.955-0.388
	c-0.258-0.258-0.388-0.576-0.388-0.954v-18.1c0-0.377,0.13-0.7,0.388-0.969c0.258-0.268,0.576-0.403,0.955-0.403
	C138.513,25.501,144.506,25.501,144.506,25.501z M144.178,43.779c2.464,0,4.452-0.725,5.963-2.176
	c1.471-1.451,2.207-3.35,2.207-5.695c0-2.346-0.736-4.245-2.207-5.695c-1.511-1.451-3.499-2.177-5.963-2.177h-4.294v15.743H144.178z
	"/>
<path fill="#FCAD56" stroke="#FCAD56" stroke-width="2" stroke-miterlimit="10" d="M173.743,44.153
	c0.248,0.249,0.372,0.552,0.372,0.91s-0.124,0.656-0.372,0.894c-0.25,0.238-0.552,0.358-0.909,0.358h-11.957
	c-0.379,0-0.696-0.129-0.955-0.388c-0.258-0.258-0.388-0.576-0.388-0.954v-18.1c0-0.377,0.13-0.7,0.388-0.969
	c0.258-0.268,0.576-0.403,0.955-0.403h11.957c0.357,0,0.659,0.125,0.909,0.373c0.248,0.248,0.372,0.552,0.372,0.91
	s-0.124,0.656-0.372,0.894c-0.25,0.238-0.552,0.358-0.909,0.358h-10.587v6.589h7.694c0.357,0,0.661,0.125,0.909,0.373
	c0.248,0.249,0.374,0.552,0.374,0.91s-0.126,0.656-0.374,0.894c-0.248,0.238-0.552,0.358-0.909,0.358h-7.694v6.619h10.587
	C173.191,43.779,173.493,43.904,173.743,44.153z"/>
<path fill="#FCAD56" stroke="#FCAD56" stroke-width="2" stroke-miterlimit="10" d="M185.893,25.501c3.32,0,5.963,1.114,7.931,3.34
	c0.875,0.974,1.526,2.082,1.952,3.324c0.429,1.243,0.642,2.49,0.642,3.743c0,1.252-0.213,2.5-0.642,3.742
	c-0.426,1.243-1.077,2.351-1.952,3.325c-1.968,2.226-4.612,3.34-7.931,3.34h-5.994c-0.377,0-0.696-0.129-0.953-0.388
	c-0.259-0.258-0.389-0.576-0.389-0.954v-18.1c0-0.377,0.13-0.7,0.389-0.969c0.257-0.268,0.576-0.403,0.953-0.403
	C179.899,25.501,185.893,25.501,185.893,25.501z M185.565,43.779c2.464,0,4.452-0.725,5.963-2.176
	c1.471-1.451,2.207-3.35,2.207-5.695c0-2.346-0.736-4.245-2.207-5.695c-1.511-1.451-3.499-2.177-5.963-2.177h-4.294v15.743H185.565z
	"/>
<g>
	<path fill="#FFFFFF" d="M157.363,72.986c0.275,0.276,0.413,0.611,0.413,1.008s-0.138,0.727-0.413,0.991
		c-0.277,0.264-0.611,0.397-1.007,0.397H143.11c-0.419,0-0.772-0.143-1.058-0.43c-0.286-0.286-0.43-0.638-0.43-1.057v-20.05
		c0-0.418,0.143-0.776,0.43-1.073c0.286-0.297,0.638-0.446,1.058-0.446h13.246c0.396,0,0.73,0.138,1.007,0.413
		c0.275,0.275,0.413,0.611,0.413,1.008s-0.138,0.727-0.413,0.991c-0.277,0.264-0.611,0.396-1.007,0.396H144.63v7.299h8.523
		c0.396,0,0.732,0.138,1.007,0.413c0.275,0.276,0.414,0.611,0.414,1.008s-0.139,0.727-0.414,0.991s-0.611,0.397-1.007,0.397h-8.523
		v7.332h11.727C156.752,72.573,157.087,72.711,157.363,72.986z"/>
	<path fill="#FFFFFF" d="M84.83,52.325c3.063,0,5.363,0.793,6.905,2.378c1.277,1.278,1.917,2.929,1.917,4.955
		s-0.64,3.677-1.917,4.955c-1.542,1.585-3.842,2.378-6.905,2.378h-6.01v7.069c0,0.418-0.15,0.771-0.447,1.057
		c-0.297,0.286-0.655,0.43-1.073,0.43c-0.419,0-0.772-0.143-1.058-0.43c-0.285-0.286-0.429-0.638-0.429-1.057V53.844
		c0-0.418,0.144-0.776,0.429-1.073c0.285-0.297,0.638-0.446,1.058-0.446C77.3,52.325,84.83,52.325,84.83,52.325z M84.535,64.15
		c2.268,0,3.908-0.484,4.92-1.453c0.795-0.749,1.19-1.761,1.19-3.039c0-2.048-1.024-3.413-3.071-4.096
		c-0.794-0.264-1.806-0.397-3.039-0.397H78.82v8.984L84.535,64.15L84.535,64.15z"/>
	<path fill="#FFFFFF" d="M128.498,52.325c3.061,0,5.363,0.793,6.905,2.378c1.277,1.278,1.915,2.929,1.915,4.955
		s-0.638,3.677-1.915,4.955c-1.542,1.585-3.844,2.378-6.905,2.378h-6.012v7.069c0,0.418-0.149,0.771-0.445,1.057
		c-0.299,0.286-0.655,0.43-1.073,0.43c-0.421,0-0.772-0.143-1.059-0.43c-0.285-0.286-0.428-0.638-0.428-1.057V53.844
		c0-0.418,0.143-0.776,0.428-1.073c0.287-0.297,0.638-0.446,1.059-0.446C120.968,52.325,128.498,52.325,128.498,52.325z
		 M128.2,64.15c2.268,0,3.908-0.484,4.922-1.453c0.793-0.749,1.19-1.761,1.19-3.039c0-2.048-1.026-3.413-3.073-4.096
		c-0.793-0.264-1.806-0.397-3.039-0.397h-5.715v8.984L128.2,64.15L128.2,64.15z"/>
	<path fill="#FFFFFF" d="M180.619,74.06c0,0.418-0.143,0.771-0.428,1.057c-0.289,0.286-0.652,0.43-1.09,0.43
		c-0.442,0-0.8-0.138-1.075-0.413c-0.277-0.275-0.413-0.632-0.413-1.073V73.07c0-1.784-0.199-3.093-0.594-3.93
		c-0.397-0.837-0.937-1.503-1.62-1.999c-0.682-0.495-1.65-0.743-2.906-0.743h-6.838v7.664c0,0.418-0.148,0.771-0.445,1.057
		c-0.297,0.286-0.655,0.43-1.073,0.43c-0.419,0-0.771-0.143-1.058-0.43c-0.287-0.286-0.429-0.638-0.429-1.057V53.844
		c0-0.418,0.143-0.776,0.429-1.073c0.287-0.297,0.638-0.446,1.058-0.446h7.696c3.017,0,5.295,0.639,6.837,1.916
		c1.433,1.211,2.148,2.808,2.148,4.79c0,1.277-0.358,2.466-1.075,3.567c-0.715,1.102-1.8,1.905-3.253,2.412
		c1.586,0.419,2.73,1.564,3.436,3.435c0.462,1.256,0.693,2.621,0.693,4.097L180.619,74.06L180.619,74.06z M171.635,63.556
		c1.851,0,3.341-0.364,4.475-1.091s1.701-1.795,1.701-3.204c0-1.322-0.44-2.312-1.321-2.973c-1.056-0.749-2.73-1.123-5.02-1.123
		h-5.815v8.39L171.635,63.556L171.635,63.556z"/>
	<g>
		<path fill="#FFFFFF" d="M109.196,66.922l-4.46-10.736l-4.458,10.736l-1.156,2.74l-2.148,5.154
			c-0.263,0.616-0.683,0.923-1.255,0.923c-0.574,0-0.991-0.143-1.255-0.429c-0.265-0.285-0.397-0.577-0.397-0.874
			s0.054-0.579,0.165-0.842l8.424-19.886c0.396-0.903,1.034-1.355,1.915-1.355h0.331c0.879,0,1.52,0.452,1.915,1.355l8.422,19.886
			c0.11,0.263,0.166,0.545,0.166,0.842s-0.132,0.589-0.397,0.874c-0.263,0.287-0.683,0.429-1.255,0.429
			c-0.574,0-0.991-0.307-1.255-0.923l-2.148-5.154L109.196,66.922z"/>
	</g>
</g>
<path fill="#FFFFFF" d="M57.811,28.225c-1.27-3.154-3.012-5.979-5.224-8.474c-2.214-2.493-4.861-4.706-7.944-6.246
	C41.559,11.964,38.168,11,34.469,11H10.406C5.485,11,1,15.299,1,20.22v60.395c0,4.921,4.079,8.911,9,8.911s9-3.989,9-8.911V64
	h16.013c3.7,0,7.073-0.571,10.12-2.039c3.047-1.467,5.64-3.367,7.781-5.862c2.139-2.493,3.809-5.278,5.006-8.434
	c1.197-3.154,1.795-6.435,1.795-9.885C59.715,34.552,59.079,31.381,57.811,28.225z M39.366,45.541
	C37.842,47.376,36.028,48,33.925,48H19V27h14.272c1.015,0,2.03,0.32,3.047,0.723c1.015,0.404,1.921,1.104,2.721,1.985
	c0.797,0.881,1.432,2.01,1.904,3.331c0.471,1.321,0.707,2.768,0.707,4.601C41.651,41.161,40.889,43.708,39.366,45.541z"/>
<path fill="#FCAD56" d="M33.158,27.075l2.443-15.926C35.198,11.128,34.881,11,34.469,11H10.406C5.485,11,1,15.299,1,20.22v60.395
	c0,4.921,4.079,8.911,9,8.911s9-3.989,9-8.911V64h8.555l2.541-16H19V27h14"/>
<linearGradient id="SVGID_1_" gradientUnits="userSpaceOnUse" x1="-362.2181" y1="1622.7944" x2="-352.4818" y2="1623.9857" gradientTransform="matrix(1 0 0 1 381.5 -1567.5)">
	<stop  offset="0" style="stop-color:#FCAD56;stop-opacity:0"/>
	<stop  offset="0.9949" style="stop-color:#060604;stop-opacity:0.4975"/>
	<stop  offset="1" style="stop-color:#000000;stop-opacity:0.5"/>
</linearGradient>
<polygon opacity="0.6" fill="url(#SVGID_1_)" enable-background="new    " points="20,48 20,64 27.555,64 30.096,48 "/>
<linearGradient id="SVGID_2_" gradientUnits="userSpaceOnUse" x1="-357.2111" y1="1585.817" x2="-346.9306" y2="1587.0751" gradientTransform="matrix(1 0 0 1 381.5 -1567.5)">
	<stop  offset="0" style="stop-color:#FCAD56;stop-opacity:0"/>
	<stop  offset="0.9949" style="stop-color:#060604;stop-opacity:0.4975"/>
	<stop  offset="1" style="stop-color:#000000;stop-opacity:0.5"/>
</linearGradient>
<path opacity="0.6" fill="url(#SVGID_2_)" enable-background="new    " d="M35.647,11.111C35.242,11.091,34.881,11,34.469,11H25v16
	h8.178h0.069L35.647,11.111z"/>
</svg>
